<?xml version="1.0" standalone="no"?>
<!DOCTYPE svg PUBLIC "-//W3C//DTD SVG 1.1//EN" "http://www.w3.org/Graphics/SVG/1.1/DTD/svg11.dtd" >
<svg xmlns="http://www.w3.org/2000/svg">
<metadata>
Created by FontPrep 20130207 at Wed Jun  4 14:11:42 2014
 By Reinier van der Windt
Designed and produced by Bold Monday. For exclusive use by KPN and its affiliates only.
</metadata>
<defs>
<font id="1b31c318d956d41420f5cc1b9d996162" horiz-adv-x='1024' >
  <font-face 
    font-family="KPNAccent-Light"
    font-weight="300"
    font-stretch="normal"
    units-per-em="2048"
    panose-1="2 1 4 3 4 0 0 6 0 4"
    ascent="1602"
    descent="-446"
    x-height="1036"
    cap-height="1452"
    bbox="-1341 -530 7047 1997"
    underline-thickness="81"
    underline-position="-328"
    unicode-range="U+000D-FB02"
  />
<missing-glyph horiz-adv-x="1228" 
d="M649 571l314 -878v1769zM303 1540l313 -876l308 876h-621zM612 492l-309 -877h621zM266 1462v-1769l314 889zM205 -446v2048h819v-2048h-819z" />
    <glyph glyph-name="fi" unicode="fi" horiz-adv-x="1214" 
d="M926 1286q-41 0 -69 29t-28 67t28 68q28 29 69 29q40 0 68 -29t28 -68q0 -40 -28 -68t-68 -28zM348 932v-932h-123v932h-176v104h176v144q0 180 84 270q85 90 211 90t191 -37l-19 -98q-50 25 -154 25t-147 -70t-43 -213v-111h639v-870q0 -66 64 -66h116v-100
q-55 -6 -140 -6t-124 38t-39 122v778h-516z" />
    <glyph glyph-name="fl" unicode="fl" horiz-adv-x="1214" 
d="M1027 -6q-85 0 -124 38t-39 122v1359h123v-1347q0 -66 64 -66h116v-100q-55 -6 -140 -6zM49 932v104h176v144q0 180 84 270q85 90 211 90t191 -37l-19 -98q-50 25 -154 25t-147 -70t-43 -213v-111h307v-104h-307v-932h-123v932h-176z" />
    <glyph glyph-name="f_b" unicode="fb" horiz-adv-x="1851" 
d="M1210 80q195 0 306 127t110 350q0 174 -78 287t-226 113t-278 -109l-57 -47v-674q90 -47 223 -47zM49 932v104h176v133q-1 199 95 285t286 86t286 -86t95 -285v-245l37 30q134 109 324 109t298 -141t108 -382t-139 -404q-138 -163 -390 -163q-207 0 -361 84v1080
q0 161 -51 229t-207 68t-207 -68t-51 -229v-101h250v-104h-250v-932h-123v932h-176z" />
    <glyph glyph-name="f_f" unicode="ff" horiz-adv-x="1359" 
d="M905 0v932h-557v-932h-123v932h-176v104h176v144q0 180 84 270q85 90 211 90t191 -37l-19 -98q-50 25 -154 25t-147 -70t-43 -213v-111h557v144q0 180 84 270q85 90 211 90t191 -37l-19 -98q-50 25 -154 25t-147 -70t-43 -213v-111h307v-104h-307v-932h-123z" />
    <glyph glyph-name="f_f_b" unicode="ffb" horiz-adv-x="2531" 
d="M1890 80q196 0 306 127t110 350q0 174 -78 287t-226 113t-278 -109l-57 -47v-674q90 -47 223 -47zM348 932v-932h-123v932h-176v104h176v144q0 180 84 270q85 90 211 90t191 -37l-19 -98q-50 25 -154 25t-147 -70t-43 -213v-111h557v133q0 199 95 285q96 86 286 86
t286 -86t95 -285v-245l37 30q134 109 324 109t298 -141t108 -382t-139 -404q-138 -163 -390 -163q-207 0 -361 84v1080q0 161 -51 229t-207 68t-207 -68t-51 -229v-101h250v-104h-250v-932h-123v932h-557z" />
    <glyph glyph-name="f_f_i" unicode="ffi" horiz-adv-x="1894" 
d="M1606 1286q-41 0 -69 29t-28 67t28 68q28 29 69 29q40 0 68 -29t28 -68q0 -40 -28 -68t-68 -28zM348 932v-932h-123v932h-176v104h176v144q0 180 84 270q85 90 211 90t191 -37l-19 -98q-50 25 -154 25t-147 -70t-43 -213v-111h557v144q0 180 84 270q85 90 211 90t191 -37
l-19 -98q-50 25 -154 25t-147 -70t-43 -213v-111h639v-870q0 -66 64 -66h116v-100q-55 -6 -140 -6t-124 38t-39 122v778h-516v-932h-123v932h-557z" />
    <glyph glyph-name="f_f_l" unicode="ffl" horiz-adv-x="1894" 
d="M1707 -6q-85 0 -124 38t-39 122v1359h123v-1347q0 -66 64 -66h116v-100q-55 -6 -140 -6zM348 932v-932h-123v932h-176v104h176v144q0 180 84 270q85 90 211 90t191 -37l-19 -98q-50 25 -154 25t-147 -70t-43 -213v-111h557v144q0 180 84 270q85 90 211 90t191 -37
l-19 -98q-50 25 -154 25t-147 -70t-43 -213v-111h307v-104h-307v-932h-123v932h-557z" />
    <glyph glyph-name=".notdef" horiz-adv-x="1228" 
d="M649 571l314 -878v1769zM303 1540l313 -876l308 876h-621zM612 492l-309 -877h621zM266 1462v-1769l314 889zM205 -446v2048h819v-2048h-819z" />
    <glyph glyph-name=".null" 
 />
    <glyph glyph-name="nonmarkingreturn" horiz-adv-x="681" 
 />
    <glyph glyph-name="CR" unicode="&#xd;" 
 />
    <glyph glyph-name="space" unicode=" " horiz-adv-x="491" 
 />
    <glyph glyph-name="exclam" unicode="!" horiz-adv-x="602" 
d="M233 1452h136v-602l-27 -467h-82l-27 467v602zM301 -27q-45 0 -76 31t-30 76q0 45 30 76q31 30 76 30t76 -30t31 -76q0 -45 -31 -76t-76 -31z" />
    <glyph glyph-name="quotedbl" unicode="&#x22;" horiz-adv-x="675" 
d="M420 1452h133v-166l-21 -303h-92l-20 303v166zM123 1452h133v-166l-20 -303h-93l-20 303v166z" />
    <glyph glyph-name="numbersign" unicode="#" horiz-adv-x="1245" 
d="M500 932l-68 -395h316l65 395h-313zM127 932v100h274l76 443l111 -21l-72 -422h313l76 443l111 -21l-72 -422h174v-100h-190l-68 -395h258v-101h-274l-76 -459l-111 21l74 438h-315l-76 -459l-111 19l74 440h-176v101h192l66 395h-258z" />
    <glyph glyph-name="dollar" unicode="$" horiz-adv-x="1116" 
d="M528 -27q-139 1 -261 49t-185 125l65 91q154 -150 375 -150q162 0 258 78t96 213t-108 208q-59 40 -105 60t-135 53q-186 72 -288 161t-102 249t115 264q116 104 314 105q121 0 230 -39t168 -94l-58 -95q-153 115 -319 115t-242 -73t-76 -187t96 -183q75 -54 200 -103
q125 -48 187 -79q180 -90 227 -197q30 -67 30 -155q0 -188 -134 -302t-348 -114zM481 1556v213h119v-213h-119zM481 -324v213h119v-213h-119z" />
    <glyph glyph-name="percent" unicode="%" horiz-adv-x="1724" 
d="M393 -68l-100 68l1034 1520l100 -68zM1315 84q82 0 132 78t50 200t-50 201q-50 78 -132 78t-132 -78t-50 -201q0 -122 50 -200t132 -78zM1622 363q0 -169 -84 -279t-225 -111q-141 0 -223 110q-82 111 -82 279t84 279t225 111t223 -110t82 -279zM410 811q82 0 132 78
t50 201q0 122 -50 200t-132 78t-132 -78t-50 -200t50 -201q50 -78 132 -78zM408 700q-141 0 -224 110q-82 110 -82 279t84 279t226 111q142 0 223 -110q82 -111 82 -279t-84 -279t-225 -111z" />
    <glyph glyph-name="ampersand" unicode="&#x26;" horiz-adv-x="1456" 
d="M414 1178q0 -62 26 -124t52 -94q25 -32 71 -83q158 83 227 149q68 66 68 158t-59 140t-170 48q-215 1 -215 -194zM586 84q261 0 401 174l-452 485q-129 -75 -202 -157t-73 -206t95 -210t231 -86zM606 -27q-211 0 -342 114t-131 281t87 266t241 187q-170 178 -170 363
q0 147 100 221t251 74t245 -78t94 -212t-111 -234q-57 -49 -103 -79t-130 -77l414 -447q37 76 49 150t12 207v67h119v-57q0 -279 -101 -453l213 -227l-79 -78l-199 213q-172 -201 -459 -201z" />
    <glyph glyph-name="quotesingle" unicode="'" horiz-adv-x="378" 
d="M123 1452h133v-166l-20 -303h-93l-20 303v166z" />
    <glyph glyph-name="parenleft" unicode="(" horiz-adv-x="649" 
d="M133 500q0 193 52 379t124 309q72 124 129 198t86 93l86 -64q-117 -135 -178 -244q-172 -307 -172 -671q0 -520 340 -903q8 -8 10 -13l-86 -63q-70 44 -215 291q-72 123 -124 309t-52 379z" />
    <glyph glyph-name="parenright" unicode=")" horiz-adv-x="649" 
d="M391 500q0 520 -340 903q-8 8 -10 12l86 64q68 -42 215 -291q72 -123 124 -309t52 -379t-52 -379t-124 -309q-145 -247 -215 -291l-86 63q117 135 178 244q172 307 172 672z" />
    <glyph glyph-name="asterisk" unicode="*" horiz-adv-x="946" 
d="M420 621l-10 133l22 209l-172 -123l-119 -60l-55 94l111 74l192 86l-192 88l-111 74l53 94l119 -59l172 -123l-20 211l8 133h112l9 -133l-21 -211l172 123l119 59l53 -94l-110 -74l-193 -88l193 -86l110 -74l-55 -94l-119 60l-172 123l23 -209l-11 -133h-108z" />
    <glyph glyph-name="plus" unicode="+" horiz-adv-x="1261" 
d="M113 471v111h456v454h123v-454h457v-111h-457v-471h-123v471h-456z" />
    <glyph glyph-name="comma" unicode="," horiz-adv-x="540" 
d="M242 -54q0 34 -27 50q-51 29 -51 79t31 81t75 30q106 0 106 -123t-62 -229t-117 -158l-78 45q41 49 82 120t41 105z" />
    <glyph glyph-name="hyphen" unicode="-" horiz-adv-x="907" 
d="M113 465v123h682v-123h-682z" />
    <glyph glyph-name="period" unicode="." horiz-adv-x="540" 
d="M270 -27q-46 0 -76 31t-30 76t31 76q31 30 75 30t76 -30q31 -30 31 -76q0 -45 -31 -76t-76 -31z" />
    <glyph glyph-name="slash" unicode="/" horiz-adv-x="636" 
d="M55 -190l-112 40l602 1690l112 -41z" />
    <glyph glyph-name="zero" unicode="0" horiz-adv-x="1204" 
d="M602 84q168 0 260 169t92 474t-92 473t-260 168t-260 -168t-92 -473t92 -474t260 -169zM601 -27q-222 0 -352 198t-130 554t131 555t353 199t352 -197t130 -553t-131 -556t-353 -200z" />
    <glyph glyph-name="one" unicode="1" horiz-adv-x="641" 
d="M315 0v1343h-237v109h362v-1452h-125z" />
    <glyph glyph-name="two" unicode="2" horiz-adv-x="1058" 
d="M119 0v100l391 475q152 182 212 295t60 233q0 119 -72 193t-204 74q-180 0 -316 -117l-61 84q143 141 353 141t320 -98q112 -100 112 -260t-78 -299q-76 -139 -228 -315l-338 -395h691v-111h-842z" />
    <glyph glyph-name="three" unicode="3" horiz-adv-x="1013" 
d="M434 -27q-256 0 -387 136l59 92q50 -49 136 -84t178 -35q147 0 242 81q94 81 94 210q0 338 -428 338h-56v104h72q178 0 270 81t92 209t-81 197q-81 68 -225 68t-259 -78l-49 86q135 100 346 101q168 1 282 -99t114 -258q0 -262 -246 -352q135 -35 215 -139
q80 -105 80 -269t-128 -276t-321 -113z" />
    <glyph glyph-name="four" unicode="4" horiz-adv-x="1081" 
d="M45 379v96l617 977h139l-611 -965h508v492h125v-492h213v-108h-213v-379h-125v379h-653z" />
    <glyph glyph-name="five" unicode="5" horiz-adv-x="1077" 
d="M490 -27q-236 0 -367 136l59 92q51 -49 136 -84t178 -35q166 0 250 92t83 258q0 166 -83 262t-223 96t-253 -73l-82 47l31 688h674v-111h-559l-25 -495q94 51 213 51q211 0 323 -128q111 -128 111 -333t-114 -334q-116 -129 -352 -129z" />
    <glyph glyph-name="six" unicode="6" horiz-adv-x="1169" 
d="M911 436q-1 164 -91 260t-250 95q-160 0 -322 -119v-72q0 -262 89 -390t241 -128t242 95t91 259zM577 -27q-214 0 -336 163t-122 485q0 389 164 623t446 235q174 0 264 -56l-28 -96q-100 45 -236 45q-188 0 -315 -150t-160 -429q174 109 342 108q207 0 325 -129
q117 -129 117 -334t-124 -335t-337 -130z" />
    <glyph glyph-name="seven" unicode="7" horiz-adv-x="987" 
d="M193 1343v-253h-115v362h831v-96l-430 -1356h-131l426 1343h-581z" />
    <glyph glyph-name="eight" unicode="8" horiz-adv-x="1171" 
d="M872 1147q0 111 -80 167q-81 56 -206 56t-206 -56t-81 -168q-1 -112 65 -178t222 -151q84 49 121 73t84 66t64 86q17 45 17 105zM586 82q152 0 244 66t92 192q0 125 -88 205t-250 160q-147 -76 -215 -131q-68 -56 -94 -111t-25 -123q0 -126 92 -192t244 -66zM1049 340
q0 -164 -130 -266t-335 -101q-205 -1 -333 99t-128 256t93 250t259 184q-143 76 -223 164t-80 229t118 233t298 91q180 0 296 -89q116 -90 116 -234t-80 -227q-78 -83 -228 -165q261 -137 327 -283q30 -66 30 -141z" />
    <glyph glyph-name="nine" unicode="9" horiz-adv-x="1169" 
d="M283 1022q-1 -164 89 -256t252 -92t324 119v59q0 266 -89 392t-243 126t-244 -92t-89 -256zM520 -27q-231 0 -358 138l57 88q121 -117 301 -117q393 0 424 592q-170 -111 -362 -111t-310 126q-116 126 -116 331t124 332t342 127t335 -168q118 -168 118 -543t-135 -585
t-420 -210z" />
    <glyph glyph-name="colon" unicode=":" horiz-adv-x="540" 
d="M270 850q-46 0 -76 31t-30 75t31 76q31 31 75 31t76 -31q31 -31 31 -76q0 -46 -31 -76t-76 -30zM270 -27q-46 0 -76 31t-30 76t31 76q31 30 75 30t76 -30q31 -30 31 -76q0 -45 -31 -76t-76 -31z" />
    <glyph glyph-name="semicolon" unicode=";" horiz-adv-x="540" 
d="M242 -54q0 34 -27 50q-51 29 -51 79t31 81t75 30q106 0 106 -123t-62 -229t-117 -158l-78 45q41 49 82 120t41 105zM270 850q-46 0 -76 31t-30 75t31 76q31 31 75 31t76 -31q31 -31 31 -76q0 -46 -31 -76t-76 -30z" />
    <glyph glyph-name="less" unicode="&#x3c;" horiz-adv-x="1273" 
d="M1124 -27l-1046 498v94l1046 498l52 -98l-955 -447l955 -440z" />
    <glyph glyph-name="equal" unicode="=" horiz-adv-x="1363" 
d="M164 711v116h1036v-116h-1036zM164 225v117h1036v-117h-1036z" />
    <glyph glyph-name="greater" unicode="&#x3e;" horiz-adv-x="1273" 
d="M150 -27l-52 99l955 446l-955 440l52 105l1046 -498v-94z" />
    <glyph glyph-name="question" unicode="?" horiz-adv-x="999" 
d="M403 -27q-45 0 -75 31t-31 76q0 45 31 76q32 30 76 30t75 -30t31 -76q0 -45 -31 -76t-76 -31zM356 383q-4 41 -4 101t27 128t143 165q43 36 56 48q137 125 137 265t-84 210t-220 70t-257 -65l-39 88q115 86 305 86q190 1 308 -101t118 -274q0 -203 -187 -365l-48 -40
q-105 -88 -134 -157t-31 -159h-90z" />
    <glyph glyph-name="at" unicode="@" horiz-adv-x="2131" 
d="M932 82q70 0 144 49t188 164l92 610q-80 43 -180 43q-184 0 -311 -157q-126 -158 -126 -406q0 -303 193 -303zM1067 -479q-397 0 -671 297q-273 297 -273 721q0 276 122 503q122 226 348 362q227 136 495 136t471 -98t325 -291t123 -467q0 -274 -147 -493
q-147 -218 -385 -218q-209 0 -215 201q-176 -201 -351 -201q-139 -1 -220 105t-81 288t64 332q64 152 195 251q132 99 301 99t321 -71l-115 -758q-4 -29 -4 -61t27 -56t77 -24q113 1 249 128q69 64 114 188t45 300t-67 323q-121 264 -430 363q-134 43 -283 43
q-383 0 -619 -255q-235 -256 -235 -632t236 -637t591 -261q297 0 522 174l62 -88q-82 -74 -243 -138t-349 -65z" />
    <glyph glyph-name="A" unicode="A" horiz-adv-x="1298" 
d="M647 1317l-301 -805h600zM25 0l553 1452h143l553 -1452h-135l-152 401h-680l-151 -401h-131z" />
    <glyph glyph-name="B" unicode="B" horiz-adv-x="1193" 
d="M510 1341h-176v-536h176q196 0 278 71q82 72 82 198t-82 196t-278 71zM547 698h-213v-587h213q410 0 409 292q1 295 -409 295zM205 0v1452h334q239 0 353 -105t114 -264q0 -113 -56 -195t-157 -126q137 -35 218 -127t81 -234q0 -177 -132 -289t-399 -112h-356z" />
    <glyph glyph-name="C" unicode="C" horiz-adv-x="1400" 
d="M807 -27q-317 0 -501 200q-183 200 -183 550t187 553t501 203q254 0 440 -97v-348h-106q-16 66 -17 178v95q-150 57 -311 57q-264 0 -411 -172q-148 -172 -148 -465t150 -466t423 -173q203 0 412 105l35 -107q-78 -49 -210 -81t-261 -32z" />
    <glyph glyph-name="D" unicode="D" horiz-adv-x="1478" 
d="M334 1341v-1230h256q303 1 467 153t164 463t-164 463t-467 151h-256zM205 0v1452h395q346 0 551 -184t205 -540t-206 -542t-550 -186h-395z" />
    <glyph glyph-name="E" unicode="E" horiz-adv-x="1124" 
d="M205 0v1452h827v-111h-698v-536h536v-111h-536v-583h704v-111h-833z" />
    <glyph glyph-name="F" unicode="F" horiz-adv-x="1062" 
d="M205 0v1452h796v-111h-667v-550h538v-111h-538v-680h-129z" />
    <glyph glyph-name="G" unicode="G" horiz-adv-x="1460" 
d="M834 -27q-330 0 -521 200q-190 200 -190 548t194 553q195 205 510 205q129 0 257 -33t202 -80l-35 -109q-203 106 -413 107q-272 0 -426 -173t-154 -466t154 -465t428 -172q160 0 323 62v569h129v-643q-78 -45 -204 -74t-254 -29z" />
    <glyph glyph-name="H" unicode="H" horiz-adv-x="1423" 
d="M205 0v1452h129v-637h756v637h129v-1452h-129v705h-756v-705h-129z" />
    <glyph glyph-name="I" unicode="I" horiz-adv-x="538" 
d="M205 0v1452h129v-1452h-129z" />
    <glyph glyph-name="J" unicode="J" horiz-adv-x="763" 
d="M258 -27q-123 0 -197 37l17 101q48 -25 156 -25t154 45t46 145v1176h129v-1208q0 -271 -305 -271z" />
    <glyph glyph-name="K" unicode="K" horiz-adv-x="1277" 
d="M205 0v1452h129v-1452h-129zM1108 -8q-96 0 -158 33t-123 112l-475 606l701 709h166l-709 -709l432 -544q47 -59 94 -77t125 -18h86v-104q-43 -8 -139 -8z" />
    <glyph glyph-name="L" unicode="L" horiz-adv-x="1040" 
d="M205 0v1452h129v-1341h645v-111h-774z" />
    <glyph glyph-name="M" unicode="M" horiz-adv-x="1789" 
d="M205 0v1452h160l532 -887l533 887h155v-1452h-125v1276l-518 -860h-94l-518 860v-1276h-125z" />
    <glyph glyph-name="N" unicode="N" horiz-adv-x="1472" 
d="M205 0v1452h155l783 -1270v1270h125v-1452h-156l-782 1270v-1270h-125z" />
    <glyph glyph-name="O" unicode="O" horiz-adv-x="1650" 
d="M825 88q270 0 419 179q148 179 149 460t-147 459t-420 178t-420 -178t-148 -459t148 -460t419 -179zM822 -27q-322 0 -511 207q-188 207 -188 544t191 546t514 209t511 -206q189 -206 189 -543t-192 -547t-514 -210z" />
    <glyph glyph-name="P" unicode="P" horiz-adv-x="1159" 
d="M518 1341h-184v-651h184q428 0 428 326t-428 325zM205 0v1452h327q254 0 402 -111t147 -323q1 -212 -149 -326q-150 -113 -400 -112h-198v-580h-129z" />
    <glyph glyph-name="Q" unicode="Q" horiz-adv-x="1650" 
d="M825 88q158 0 281 68l-180 231l98 72l182 -232q186 174 187 500q1 281 -147 459t-420 178t-420 -178t-148 -459t148 -460t419 -179zM825 -27q-326 0 -514 207t-188 544t191 546t514 209t511 -206t189 -546q0 -385 -246 -596l168 -213l-102 -72l-168 213
q-156 -86 -355 -86z" />
    <glyph glyph-name="R" unicode="R" horiz-adv-x="1204" 
d="M561 1341h-227v-573h227q170 0 262 75t92 212t-92 211t-262 75zM205 0v1452h377q211 0 341 -109t128 -281t-115 -276q-113 -102 -295 -118l533 -668h-164l-516 657h-160v-657h-129z" />
    <glyph glyph-name="S" unicode="S" horiz-adv-x="1075" 
d="M508 -27q-139 1 -261 49t-186 125l66 91q154 -150 375 -150q162 0 258 78t96 212t-108 209q-59 40 -109 62t-131 51q-186 72 -289 161q-102 89 -102 249t115 264q116 104 315 105q121 0 229 -39t168 -94l-57 -95q-153 115 -319 115t-242 -73t-76 -187t95 -183
q75 -54 200 -103q125 -48 187 -79q180 -90 227 -197q30 -67 30 -155q0 -188 -133 -302t-348 -114z" />
    <glyph glyph-name="T" unicode="T" horiz-adv-x="1155" 
d="M512 0v1341h-467v111h1065v-111h-469v-1341h-129z" />
    <glyph glyph-name="U" unicode="U" horiz-adv-x="1392" 
d="M1208 494q0 -260 -138 -390t-376 -131q-238 0 -374 129t-136 392v958h129v-950q0 -412 383 -412t383 412v950h129v-958z" />
    <glyph glyph-name="V" unicode="V" horiz-adv-x="1277" 
d="M567 0l-542 1452h135l481 -1302l481 1302h131l-542 -1452h-144z" />
    <glyph glyph-name="W" unicode="W" horiz-adv-x="1923" 
d="M453 0l-420 1452h135l362 -1276l355 1276h157l357 -1296l360 1296h131l-420 -1452h-143l-366 1296l-365 -1296h-143z" />
    <glyph glyph-name="X" unicode="X" horiz-adv-x="1165" 
d="M16 0l494 750l-461 702h152l385 -602l381 602h149l-463 -700l496 -752h-154l-417 653l-412 -653h-150z" />
    <glyph glyph-name="Y" unicode="Y" horiz-adv-x="1155" 
d="M514 0v625l-510 827h152l424 -715l421 715h150l-508 -825v-627h-129z" />
    <glyph glyph-name="Z" unicode="Z" horiz-adv-x="1153" 
d="M82 0v106l821 1235h-797v111h949v-106l-826 -1235h842v-111h-989z" />
    <glyph glyph-name="bracketleft" unicode="[" horiz-adv-x="704" 
d="M246 -453v1905h389v-104h-266v-1696h266v-105h-389z" />
    <glyph glyph-name="backslash" unicode="\" horiz-adv-x="657" 
d="M582 -190l-602 1689l112 41l602 -1690z" />
    <glyph glyph-name="bracketright" unicode="]" horiz-adv-x="704" 
d="M70 -453v105h266v1696h-266v104h389v-1905h-389z" />
    <glyph glyph-name="asciicircum" unicode="^" horiz-adv-x="1093" 
d="M168 831l-90 70l428 551h82l428 -551l-90 -70l-379 492z" />
    <glyph glyph-name="underscore" unicode="_" horiz-adv-x="1064" 
d="M102 -371v111h861v-111h-861z" />
    <glyph glyph-name="grave" unicode="`" horiz-adv-x="890" 
d="M635 1176l-430 247l74 105l407 -279z" />
    <glyph glyph-name="a" unicode="a" horiz-adv-x="1118" 
d="M420 80q143 0 282 108l76 58v209q-94 23 -236 23t-233 -50q-90 -49 -90 -172q0 -176 201 -176zM418 -27q-170 0 -247 82t-77 207q0 166 126 244t331 78q127 0 227 -27v107q0 291 -282 290q-158 0 -301 -106l-52 90q147 125 363 125q216 1 305 -105q90 -106 90 -264v-528
q0 -66 64 -66h116v-100q-55 -6 -138 -6t-120 33t-41 106l-45 -37q-149 -123 -319 -123z" />
    <glyph glyph-name="b" unicode="b" horiz-adv-x="1171" 
d="M522 80q201 0 313 125q111 125 111 325t-77 313q-77 114 -225 114t-279 -109l-58 -47v-674q88 -47 215 -47zM541 -27q-203 0 -357 84v1291q0 66 -63 65h-117v100q55 7 140 7t124 -38t39 -122v-436l37 30q134 109 324 109t298 -142t108 -383t-140 -403
q-139 -162 -393 -162z" />
    <glyph glyph-name="c" unicode="c" horiz-adv-x="991" 
d="M588 -27q-244 0 -367 150q-123 149 -123 395t140 396t372 149q139 0 242 -53v-260h-98q-12 55 -13 133v53q-61 18 -129 18q-188 0 -287 -125t-99 -325t98 -310q98 -112 276 -112q129 0 248 53l29 -100q-107 -62 -289 -62z" />
    <glyph glyph-name="d" unicode="d" horiz-adv-x="1214" 
d="M225 504q1 -196 77 -310t224 -114t281 108l57 48v653q-104 68 -241 67q-180 0 -289 -128t-109 -324zM1032 -6q-80 0 -118 29t-44 94l-43 -35q-133 -109 -323 -109q-190 1 -298 143t-108 380t138 402q138 165 374 165q145 0 254 -59v509h123v-1347q0 -66 64 -66h116v-100
q-55 -6 -135 -6z" />
    <glyph glyph-name="e" unicode="e" horiz-adv-x="1159" 
d="M586 956q-144 0 -240 -92t-117 -258h691q-12 164 -102 257t-232 93zM604 -27q-238 -1 -372 143t-134 394t132 402t356 151q224 0 343 -141q120 -141 120 -371v-49h-824q2 -212 110 -316t281 -104q215 0 357 141l65 -84q-59 -68 -175 -117t-259 -49z" />
    <glyph glyph-name="f" unicode="f" horiz-adv-x="679" 
d="M49 932v104h176v144q0 180 84 270q85 90 211 90t191 -37l-19 -98q-50 25 -154 25t-147 -70t-43 -213v-111h307v-104h-307v-932h-123v932h-176z" />
    <glyph glyph-name="g" unicode="g" horiz-adv-x="1214" 
d="M225 504q1 -196 77 -310t224 -114t281 108l57 48v653q-102 68 -241 67q-180 0 -289 -128t-109 -324zM504 -27q-190 -1 -298 141t-108 380t136 404q136 165 382 165q147 0 275 -76q35 55 128 55t148 -6v-100h-116q-63 0 -64 -66v-897q0 -215 -135 -333
q-136 -118 -356 -119q-220 0 -359 78l29 98q150 -68 309 -68q389 0 389 379v105l-37 -31q-133 -109 -323 -109z" />
    <glyph glyph-name="h" unicode="h" horiz-adv-x="1218" 
d="M184 0v1513h123v-628l47 35q195 143 344 143q148 0 226 -96t77 -256v-545q0 -66 64 -66h117v-100q-55 -6 -140 -6t-124 38t-39 122v534q0 266 -197 266q-115 0 -289 -127l-86 -63v-764h-123z" />
    <glyph glyph-name="i" unicode="i" horiz-adv-x="534" 
d="M246 1286q-41 0 -69 29q-27 29 -27 67t27 68q28 29 69 29q40 0 68 -29t28 -68q0 -40 -28 -68t-68 -28zM347 -6q-85 0 -124 38t-39 122v882h123v-870q0 -66 64 -66h116v-100q-55 -6 -140 -6z" />
    <glyph glyph-name="j" unicode="j" horiz-adv-x="491" 
d="M246 1286q-41 0 -69 29q-27 29 -27 67t27 68q28 29 69 29q40 0 68 -29t28 -68q0 -40 -28 -68t-68 -28zM307 -209q0 -129 -73 -199t-203 -71q-130 0 -203 35l14 96q54 -23 154 -23t144 44t44 139v1224h123v-1245z" />
    <glyph glyph-name="k" unicode="k" horiz-adv-x="1056" 
d="M899 -6q-72 0 -121 28t-121 121l-340 447l510 446h166l-528 -456l295 -375q53 -68 87 -86t95 -19h84v-100q-55 -6 -127 -6zM184 0v1513h123v-1513h-123z" />
    <glyph glyph-name="l" unicode="l" horiz-adv-x="534" 
d="M347 -6q-85 0 -124 38t-39 122v1359h123v-1347q0 -66 64 -66h116v-100q-55 -6 -140 -6z" />
    <glyph glyph-name="m" unicode="m" horiz-adv-x="1785" 
d="M184 0v1036h119v-131l57 47q137 111 277 111q205 0 270 -172l72 57q141 115 293 115t224 -96t73 -256v-545q0 -66 63 -66h117v-100q-55 -6 -140 -6t-124 38t-39 122v534q0 266 -193 266q-115 0 -258 -116l-61 -52q4 -49 4 -75v-711h-123v688q0 266 -192 266
q-115 0 -258 -116l-58 -47v-791h-123z" />
    <glyph glyph-name="n" unicode="n" horiz-adv-x="1218" 
d="M184 0v1036h119v-155l51 39q195 143 344 143q148 0 226 -96t77 -256v-545q0 -66 64 -66h117v-100q-55 -6 -140 -6t-124 38t-39 122v534q0 266 -197 266q-115 0 -289 -127l-86 -63v-764h-123z" />
    <glyph glyph-name="o" unicode="o" horiz-adv-x="1220" 
d="M610 80q172 0 279 124q106 124 106 314t-106 314q-107 124 -279 124t-278 -124t-106 -314t106 -314t278 -124zM612 1063q230 0 370 -154t140 -388t-142 -391t-372 -157q-231 0 -370 154q-140 154 -140 388t142 391t372 157z" />
    <glyph glyph-name="p" unicode="p" horiz-adv-x="1214" 
d="M687 957q-148 0 -279 -109l-58 -47v-654q100 -68 242 -67q180 0 289 128t109 324t-78 311q-77 114 -225 114zM227 -453v1323q0 66 -63 66h-117v100q55 6 135 6t117 -30t45 -92l43 34q133 109 323 109t299 -142q107 -142 107 -380t-137 -403t-375 -165q-150 0 -254 60
v-486h-123z" />
    <glyph glyph-name="q" unicode="q" horiz-adv-x="1171" 
d="M649 956q-201 0 -313 -125t-111 -325t77 -312q76 -114 224 -114t281 108l57 48v673q-98 47 -215 47zM1027 -459q-85 0 -124 38t-39 122v412l-37 -31q-133 -109 -323 -109q-190 1 -298 143t-108 382t140 403q140 162 393 162q203 0 356 -84v-1266q0 -66 64 -65h116v-101
q-55 -6 -140 -6z" />
    <glyph glyph-name="r" unicode="r" horiz-adv-x="765" 
d="M227 0v870q0 66 -63 66h-117v100q55 6 138 6t121 -36t40 -115l64 61q115 111 237 111q80 0 129 -27l-28 -118q-45 20 -109 20q-104 0 -207 -92l-82 -76v-770h-123z" />
    <glyph glyph-name="s" unicode="s" horiz-adv-x="935" 
d="M478 -27q-150 0 -250 38t-152 93l51 91q133 -115 326 -115q119 0 191 47t71 134t-57 130t-164 79t-155 55q-46 19 -101 55q-107 69 -107 199t97 207q98 77 228 77t225 -41t138 -92l-57 -86q-123 111 -285 110q-109 0 -165 -49t-56 -117t46 -114q28 -30 83 -50t171 -58
t171 -81q111 -78 112 -216t-105 -217t-256 -79z" />
    <glyph glyph-name="t" unicode="t" horiz-adv-x="737" 
d="M51 932v104h176v312h123v-312h307v-104h-307v-709q0 -77 35 -109t117 -32t149 24l21 -96q-66 -37 -199 -37q-246 0 -246 224v735h-176z" />
    <glyph glyph-name="u" unicode="u" horiz-adv-x="1191" 
d="M1007 -6q-83 0 -120 33t-41 108l-25 -18q-195 -143 -344 -143t-226 96t-77 256v710h123v-688q0 -266 197 -266q115 0 288 127l60 43v784h123v-870q0 -66 63 -66h117v-100q-55 -6 -138 -6z" />
    <glyph glyph-name="v" unicode="v" horiz-adv-x="976" 
d="M418 0l-389 1036h135l325 -905l334 905h125l-391 -1036h-139z" />
    <glyph glyph-name="w" unicode="w" horiz-adv-x="1587" 
d="M379 0l-330 1036h131l273 -907l278 907h131l271 -907l278 907h127l-336 -1036h-143l-266 897l-271 -897h-143z" />
    <glyph glyph-name="x" unicode="x" horiz-adv-x="989" 
d="M20 0l404 532l-373 504h152l293 -409l303 409h143l-377 -499l404 -537h-152l-323 444l-330 -444h-144z" />
    <glyph glyph-name="y" unicode="y" horiz-adv-x="976" 
d="M142 -479q-120 0 -197 37l16 98q63 -27 151 -27t146 40q57 40 100 157l62 166l-391 1044h135l325 -905l334 905h125l-469 -1243q-59 -156 -138 -214t-199 -58z" />
    <glyph glyph-name="z" unicode="z" horiz-adv-x="997" 
d="M94 0v96l641 836h-629v104h777v-96l-641 -836h661v-104h-809z" />
    <glyph glyph-name="braceleft" unicode="{" horiz-adv-x="772" 
d="M602 -453q-332 0 -332 338v402q0 88 -36 125t-128 37h-28v104h28q92 0 128 37t36 125v399q0 338 332 338h109v-104h-90q-131 0 -179 -60t-49 -201v-382q0 -158 -108 -205q109 -47 108 -203v-385q0 -140 48 -200t180 -60h90v-105h-109z" />
    <glyph glyph-name="bar" unicode="|" horiz-adv-x="614" 
d="M246 -453v1966h123v-1966h-123z" />
    <glyph glyph-name="braceright" unicode="}" horiz-adv-x="772" 
d="M61 -453v105h91q131 0 179 59t48 201v383q0 156 108 203q-109 47 -108 204v385q0 141 -48 201t-179 60h-91v104h109q332 0 332 -338v-401q0 -88 36 -125t128 -37h28v-105h-28q-92 0 -128 -36t-36 -125v-400q0 -338 -332 -338h-109z" />
    <glyph glyph-name="asciitilde" unicode="~" horiz-adv-x="999" 
d="M266 1479q45 0 109 -23l248 -90q78 -29 112 -29q82 0 131 142l82 -37q-16 -84 -74 -151t-141 -66q-45 0 -108 22l-248 90q-80 29 -113 29q-82 0 -131 -141l-82 37q17 84 75 150t140 67z" />
    <glyph glyph-name="uni00A0" unicode="&#xa0;" horiz-adv-x="491" 
 />
    <glyph glyph-name="exclamdown" unicode="&#xa1;" horiz-adv-x="602" 
d="M233 -416v602l27 467h82l27 -467v-602h-136zM301 850q-45 0 -76 31t-31 75t31 76q31 31 76 31t76 -31t31 -76q0 -46 -31 -76t-76 -30z" />
    <glyph glyph-name="cent" unicode="&#xa2;" horiz-adv-x="1075" 
d="M496 -123v213h118v-213h-118zM496 1362v213h118v-213h-118zM608 178q-244 0 -366 150t-123 396q0 246 139 394q139 150 373 150q139 0 241 -54v-260h-98q-12 55 -12 133v54q-61 18 -129 18q-187 0 -287 -125q-100 -124 -100 -324t98 -312t277 -111q129 0 247 53l29 -100
q-107 -62 -289 -62z" />
    <glyph glyph-name="sterling" unicode="&#xa3;" horiz-adv-x="1177" 
d="M119 707v108h241v154q0 244 115 377t338 133q180 0 277 -66l-35 -96q-111 53 -240 53q-330 0 -330 -420v-135h344v-108h-344v-361q0 -178 -104 -237h639v-109h-901v109h47q195 0 194 266v332h-241z" />
    <glyph glyph-name="yen" unicode="&#xa5;" horiz-adv-x="1142" 
d="M510 0v295h-395v108h395v220h-395v108h297l-330 721h141l314 -721h71l314 721h139l-330 -721h297v-108h-395v-220h395v-108h-395v-295h-123z" />
    <glyph glyph-name="dieresis" unicode="&#xa8;" horiz-adv-x="983" 
d="M682 1286q-39 0 -68 29q-28 29 -28 67t28 68q29 29 68 29t68 -29q28 -29 28 -68q0 -40 -28 -68t-68 -28zM301 1286q-39 0 -68 29t-29 67t29 68q29 29 68 29t68 -29t29 -68q0 -40 -30 -68q-28 -28 -67 -28z" />
    <glyph glyph-name="copyright" unicode="&#xa9;" horiz-adv-x="1781" 
d="M891 78q266 0 447 190q182 190 182 458t-182 458t-447 190t-447 -190t-182 -458t181 -459q182 -189 448 -189zM1638 728q0 -312 -219 -534t-530 -221q-311 -1 -529 219t-217 532q0 312 219 533q218 221 530 221t529 -218q217 -220 217 -532zM879 338q-160 0 -255 103
q-96 103 -96 283t100 284q100 106 248 106q146 0 246 -53v-207h-96q-12 43 -12 113v18q-63 27 -129 27q-109 0 -177 -78t-67 -207q0 -129 66 -207q65 -78 183 -78t222 60l31 -92q-104 -72 -264 -72z" />
    <glyph glyph-name="ordfeminine" unicode="&#xaa;" horiz-adv-x="894" 
d="M147 283v100h691v-100h-691zM360 592q111 0 205 94l49 47v172q-76 20 -159 21q-236 0 -236 -178q-1 -72 35 -114t106 -42zM359 492q-132 0 -194 72q-63 72 -63 200q0 127 94 190q94 64 224 64q129 0 194 -27v125q0 254 -213 254q-131 0 -225 -86l-53 84q101 100 277 100
t252 -94t77 -231v-481q0 -57 53 -58h72v-88q-37 -8 -84 -8q-135 0 -147 125l-31 -33q-101 -108 -233 -108z" />
    <glyph glyph-name="guillemotleft" unicode="&#xab;" horiz-adv-x="1220" 
d="M1012 96l-422 422l422 422l86 -82l-338 -340l338 -336zM504 96l-422 422l422 422l86 -82l-338 -340l338 -336z" />
    <glyph glyph-name="uni00AD" unicode="&#xad;" horiz-adv-x="907" 
d="M113 465v123h682v-123h-682z" />
    <glyph glyph-name="registered" unicode="&#xae;" horiz-adv-x="1781" 
d="M750 1006v-238h145q78 0 115 34t37 85t-37 85t-115 34h-145zM641 352v750h268q113 0 182 -58t69 -144q0 -85 -46 -138q-45 -53 -119 -76l207 -334h-131l-184 322h-137v-322h-109zM891 78q266 0 447 190q182 190 182 458t-182 458t-447 190t-447 -190t-182 -458t181 -459
q182 -189 448 -189zM1638 728q0 -312 -219 -534t-530 -221q-311 -1 -529 219t-217 532q0 312 219 533q218 221 530 221t529 -218q217 -220 217 -532z" />
    <glyph glyph-name="macron" unicode="&#xaf;" horiz-adv-x="1087" 
d="M205 1348v104h678v-104h-678z" />
    <glyph glyph-name="degree" unicode="&#xb0;" horiz-adv-x="942" 
d="M471 856q109 0 183 78t73 184q0 106 -74 184q-75 78 -183 76q-108 0 -182 -76t-73 -184q-1 -106 73 -184t183 -78zM470 758q-163 0 -265 102q-103 102 -103 257t104 258t266 103q163 0 265 -102q103 -102 103 -257t-104 -258t-266 -103z" />
    <glyph glyph-name="plusminus" unicode="&#xb1;" horiz-adv-x="1261" 
d="M113 0v111h1036v-111h-1036zM113 698v111h456v455h123v-455h457v-111h-457v-471h-123v471h-456z" />
    <glyph glyph-name="twosuperior" unicode="&#xb2;" horiz-adv-x="772" 
d="M102 508v84l248 285q96 111 138 185t42 148t-45 117t-143 43t-182 -76l-51 78q100 96 242 96t221 -66t79 -174t-52 -198t-159 -211l-184 -211h430v-100h-584z" />
    <glyph glyph-name="threesuperior" unicode="&#xb3;" horiz-adv-x="751" 
d="M304 492q-156 0 -247 90l49 82q90 -74 194 -74t165 45q59 45 59 134t-70 138q-71 49 -204 49h-45v93h51q119 0 177 46q59 46 59 123q0 78 -52 116t-143 38q-90 0 -166 -47l-39 78q94 65 225 65t212 -62t81 -177q0 -156 -153 -221q82 -25 134 -92t52 -173t-91 -179
q-92 -72 -248 -72z" />
    <glyph glyph-name="acute" unicode="&#xb4;" horiz-adv-x="890" 
d="M256 1176l-51 73l407 279l74 -105z" />
    <glyph glyph-name="mu" unicode="&#xb5;" horiz-adv-x="1138" 
d="M184 -453v1489h123v-927h109q108 -1 186 29t170 98l59 43v757h123v-1036h-123v158l-20 -15q-109 -79 -193 -111t-202 -32h-109v-453h-123z" />
    <glyph glyph-name="periodcentered" unicode="&#xb7;" horiz-adv-x="540" 
d="M270 514q-46 0 -76 31t-30 76t31 75t75 31q44 0 76 -31q31 -32 31 -76t-31 -75t-76 -31z" />
    <glyph glyph-name="cedilla" unicode="&#xb8;" horiz-adv-x="710" 
d="M383 -293q0 31 -94 66l-84 32l39 89l88 -33q88 -33 131 -67t43 -87q0 -129 -268 -176l-33 82q47 10 113 39t65 55z" />
    <glyph glyph-name="onesuperior" unicode="&#xb9;" horiz-adv-x="497" 
d="M227 508v844h-153v100h268v-944h-115z" />
    <glyph glyph-name="ordmasculine" unicode="&#xba;" horiz-adv-x="966" 
d="M123 283v100h721v-100h-721zM482 1368q-124 0 -192 -98t-69 -288t69 -290t194 -100t193 98t69 288t-70 291q-70 99 -194 99zM481 492q-176 0 -277 128q-102 128 -102 359t104 360t279 129t277 -128t102 -359t-104 -360t-279 -129z" />
    <glyph glyph-name="guillemotright" unicode="&#xbb;" horiz-adv-x="1220" 
d="M717 96l-86 86l338 336l-338 340l86 82l422 -422zM209 96l-86 86l338 336l-338 340l86 82l422 -422z" />
    <glyph glyph-name="questiondown" unicode="&#xbf;" horiz-adv-x="999" 
d="M549 850q-45 0 -76 31t-31 75t31 76q31 31 76 31t76 -31t31 -76q0 -46 -32 -76q-30 -30 -75 -30zM547 -442q-205 0 -323 101t-118 267q0 211 187 371q56 42 78 64l50 50q28 28 50 75q35 73 35 167h90q4 -41 4 -75q0 -114 -38 -171q-17 -28 -24 -41q-11 -21 -72 -75
l-45 -40q-36 -32 -46 -40q-137 -125 -137 -281q0 -128 84 -196t220 -68t257 66l39 -88q-41 -34 -128 -60t-163 -26z" />
    <glyph glyph-name="Agrave" unicode="&#xc0;" horiz-adv-x="1298" 
d="M778 1542l-430 248l74 104l407 -278zM647 1317l-301 -805h600zM25 0l553 1452h143l553 -1452h-135l-152 401h-680l-151 -401h-131z" />
    <glyph glyph-name="Aacute" unicode="&#xc1;" horiz-adv-x="1298" 
d="M524 1542l-51 74l408 278l73 -104zM647 1317l-301 -805h600zM25 0l553 1452h143l553 -1452h-135l-152 401h-680l-151 -401h-131z" />
    <glyph glyph-name="Acircumflex" unicode="&#xc2;" horiz-adv-x="1298" 
d="M362 1540l-59 64l301 282h90l301 -282l-59 -64l-287 221zM647 1317l-301 -805h600zM25 0l553 1452h143l553 -1452h-135l-152 401h-680l-151 -401h-131z" />
    <glyph glyph-name="Atilde" unicode="&#xc3;" horiz-adv-x="1298" 
d="M497 1845q71 0 163 -46t131 -46q82 0 122 100l82 -43q-20 -66 -71 -118q-99 -100 -286 -5q-93 46 -130 46q-82 -1 -123 -101l-82 43q19 66 71 118t123 52zM647 1317l-301 -805h600zM25 0l553 1452h143l553 -1452h-135l-152 401h-680l-151 -401h-131z" />
    <glyph glyph-name="Adieresis" unicode="&#xc4;" horiz-adv-x="1298" 
d="M840 1653q-41 -1 -69 27t-28 69t28 69t69 28q40 0 68 -28t28 -69t-28 -69t-68 -27zM459 1653q-41 -1 -69 27t-28 69t28 69t69 28t69 -28t27 -69q1 -41 -27 -69t-69 -27zM647 1317l-301 -805h600zM25 0l553 1452h143l553 -1452h-135l-152 401h-680l-151 -401h-131z" />
    <glyph glyph-name="Aring" unicode="&#xc5;" horiz-adv-x="1298" 
d="M649 1608q61 0 105 44q43 44 43 105t-43 105q-42 44 -104 45q-62 0 -105 -44q-43 -43 -43 -105t43 -106t104 -44zM649 1518q-109 0 -177 66t-69 171q0 104 69 173q70 69 178 69t176 -67t69 -171q-1 -105 -69 -173t-177 -68zM647 1317l-301 -805h600zM25 0l553 1452h143
l553 -1452h-135l-152 401h-680l-151 -401h-131z" />
    <glyph glyph-name="AE" unicode="&#xc6;" horiz-adv-x="1773" 
d="M647 1317l-301 -805h600zM1681 1452v-111h-919l203 -536h555v-111h-512l223 -583h457v-111h-549l-152 401h-680l-151 -401h-131l553 1452h1103z" />
    <glyph glyph-name="Ccedilla" unicode="&#xc7;" horiz-adv-x="1400" 
d="M954 -293q0 -129 -268 -176l-33 82q47 10 113 39t65 55q0 31 -94 66l-84 32l39 89l88 -33q88 -33 131 -67t43 -87zM807 -27q-317 0 -501 200q-183 200 -183 550t187 553t501 203q254 0 440 -97v-348h-106q-16 66 -17 178v95q-150 57 -311 57q-264 0 -411 -172
q-148 -172 -148 -465t150 -466t423 -173q203 0 412 105l35 -107q-78 -49 -210 -81t-261 -32z" />
    <glyph glyph-name="Egrave" unicode="&#xc8;" horiz-adv-x="1124" 
d="M768 1542l-430 248l74 104l407 -278zM205 0v1452h827v-111h-698v-536h536v-111h-536v-583h704v-111h-833z" />
    <glyph glyph-name="Eacute" unicode="&#xc9;" horiz-adv-x="1124" 
d="M514 1542l-51 74l407 278l74 -104zM205 0v1452h827v-111h-698v-536h536v-111h-536v-583h704v-111h-833z" />
    <glyph glyph-name="Ecircumflex" unicode="&#xca;" horiz-adv-x="1124" 
d="M352 1540l-59 64l301 282h90l301 -282l-59 -64l-287 221zM205 0v1452h827v-111h-698v-536h536v-111h-536v-583h704v-111h-833z" />
    <glyph glyph-name="Edieresis" unicode="&#xcb;" horiz-adv-x="1124" 
d="M829 1653q-39 -1 -67 27t-29 69q0 41 29 69q30 28 68 28t67 -28t29 -69t-29 -69t-68 -27zM449 1653q-39 -1 -68 27t-29 69t29 69t68 28t67 -28t29 -69q-1 -41 -29 -69t-67 -27zM205 0v1452h827v-111h-698v-536h536v-111h-536v-583h704v-111h-833z" />
    <glyph glyph-name="Igrave" unicode="&#xcc;" horiz-adv-x="538" 
d="M397 1542l-430 248l74 104l408 -278zM205 0v1452h129v-1452h-129z" />
    <glyph glyph-name="Iacute" unicode="&#xcd;" horiz-adv-x="538" 
d="M143 1542l-51 74l408 278l73 -104zM205 0v1452h129v-1452h-129z" />
    <glyph glyph-name="Icircumflex" unicode="&#xce;" horiz-adv-x="538" 
d="M-18 1540l-60 64l301 282h90l301 -282l-59 -64l-287 221zM205 0v1452h129v-1452h-129z" />
    <glyph glyph-name="Idieresis" unicode="&#xcf;" horiz-adv-x="538" 
d="M459 1653q-41 -1 -69 27t-28 69t28 69t69 28t69 -28t27 -69q1 -41 -27 -69t-69 -27zM78 1653q-41 -1 -69 27t-27 69q0 41 27 69q28 28 69 28q40 0 68 -28t28 -69t-28 -69t-68 -27zM205 0v1452h129v-1452h-129z" />
    <glyph glyph-name="Ntilde" unicode="&#xd1;" horiz-adv-x="1472" 
d="M583 1845q71 0 163 -46t131 -46q82 0 122 100l82 -43q-20 -66 -71 -118q-99 -100 -286 -5q-93 46 -130 46q-82 -1 -123 -101l-82 43q19 66 71 118t123 52zM205 0v1452h155l783 -1270v1270h125v-1452h-156l-782 1270v-1270h-125z" />
    <glyph glyph-name="Ograve" unicode="&#xd2;" horiz-adv-x="1650" 
d="M954 1542l-430 248l74 104l408 -278zM825 88q270 0 419 179q148 179 149 460t-147 459t-420 178t-420 -178t-148 -459t148 -460t419 -179zM822 -27q-322 0 -511 207q-188 207 -188 544t191 546t514 209t511 -206q189 -206 189 -543t-192 -547t-514 -210z" />
    <glyph glyph-name="Oacute" unicode="&#xd3;" horiz-adv-x="1650" 
d="M700 1542l-51 74l408 278l73 -104zM825 88q270 0 419 179q148 179 149 460t-147 459t-420 178t-420 -178t-148 -459t148 -460t419 -179zM822 -27q-322 0 -511 207q-188 207 -188 544t191 546t514 209t511 -206q189 -206 189 -543t-192 -547t-514 -210z" />
    <glyph glyph-name="Ocircumflex" unicode="&#xd4;" horiz-adv-x="1650" 
d="M539 1540l-60 64l301 282h90l301 -282l-59 -64l-287 221zM825 88q270 0 419 179q148 179 149 460t-147 459t-420 178t-420 -178t-148 -459t148 -460t419 -179zM822 -27q-322 0 -511 207q-188 207 -188 544t191 546t514 209t511 -206q189 -206 189 -543t-192 -547
t-514 -210z" />
    <glyph glyph-name="Otilde" unicode="&#xd5;" horiz-adv-x="1650" 
d="M673 1845q71 0 164 -46t130 -46q82 0 123 100l81 -43q-20 -66 -71 -118q-99 -100 -286 -5q-93 46 -130 46q-82 -1 -123 -101l-82 43q19 66 71 118t123 52zM825 88q270 0 419 179q148 179 149 460t-147 459t-420 178t-420 -178t-148 -459t148 -460t419 -179zM822 -27
q-322 0 -511 207q-188 207 -188 544t191 546t514 209t511 -206q189 -206 189 -543t-192 -547t-514 -210z" />
    <glyph glyph-name="Odieresis" unicode="&#xd6;" horiz-adv-x="1650" 
d="M1016 1653q-41 -1 -69 27t-27 69q0 41 27 69q28 28 69 28q40 0 68 -28t28 -69t-28 -69t-68 -27zM635 1653q-41 -1 -69 27t-27 69q0 41 27 69q28 28 69 28t69 -28t27 -69q1 -41 -27 -69t-69 -27zM825 88q270 0 419 179q148 179 149 460t-147 459t-420 178t-420 -178
t-148 -459t148 -460t419 -179zM822 -27q-322 0 -511 207q-188 207 -188 544t191 546t514 209t511 -206q189 -206 189 -543t-192 -547t-514 -210z" />
    <glyph glyph-name="multiply" unicode="&#xd7;" horiz-adv-x="1355" 
d="M219 -27l-86 86l459 459l-459 459l82 86l461 -461l461 461l86 -82l-461 -463l461 -459l-86 -86l-461 459z" />
    <glyph glyph-name="Oslash" unicode="&#xd8;" horiz-adv-x="1650" 
d="M825 88q270 0 419 179q148 179 148 467t-151 458l-727 -1020q133 -84 311 -84zM825 1364q-271 0 -419 -178t-148 -470t164 -468l727 1022q-137 94 -324 94zM123 727q0 334 191 543t511 209q229 0 396 -109l122 172l101 -63l-129 -183q213 -207 213 -555t-192 -558
t-511 -210q-221 0 -383 99l-133 -189l-100 64l139 196q-225 207 -225 584z" />
    <glyph glyph-name="Ugrave" unicode="&#xd9;" horiz-adv-x="1392" 
d="M825 1542l-430 248l74 104l408 -278zM1208 494q0 -260 -138 -390t-376 -131q-238 0 -374 129t-136 392v958h129v-950q0 -412 383 -412t383 412v950h129v-958z" />
    <glyph glyph-name="Uacute" unicode="&#xda;" horiz-adv-x="1392" 
d="M571 1542l-51 74l408 278l73 -104zM1208 494q0 -260 -138 -390t-376 -131q-238 0 -374 129t-136 392v958h129v-950q0 -412 383 -412t383 412v950h129v-958z" />
    <glyph glyph-name="Ucircumflex" unicode="&#xdb;" horiz-adv-x="1392" 
d="M410 1540l-60 64l301 282h90l301 -282l-59 -64l-287 221zM1208 494q0 -260 -138 -390t-376 -131q-238 0 -374 129t-136 392v958h129v-950q0 -412 383 -412t383 412v950h129v-958z" />
    <glyph glyph-name="Udieresis" unicode="&#xdc;" horiz-adv-x="1392" 
d="M887 1653q-39 -1 -68 27t-28 69q0 41 28 69q29 28 68 28t67 -28t29 -69q-1 -41 -29 -69t-67 -27zM506 1653q-39 -1 -68 27t-28 69q0 41 28 69q29 28 68 28q40 0 68 -28t28 -69t-28 -69t-68 -27zM1208 494q0 -260 -138 -390t-376 -131q-238 0 -374 129t-136 392v958h129
v-950q0 -412 383 -412t383 412v950h129v-958z" />
    <glyph glyph-name="Yacute" unicode="&#xdd;" horiz-adv-x="1155" 
d="M453 1542l-52 74l408 278l74 -104zM514 0v625l-510 827h152l424 -715l421 715h150l-508 -825v-627h-129z" />
    <glyph glyph-name="germandbls" unicode="&#xdf;" horiz-adv-x="1206" 
d="M782 -27q-178 0 -268 76q29 96 29 98q113 -67 233 -67t184 45t64 133q0 121 -162 217l-145 88q-156 96 -156 230q0 74 45 127t163 140t118 180t-71 142t-177 50q-332 0 -332 -416v-1016h-123v1030q0 250 120 380t335 130q149 0 261 -75t112 -203q0 -100 -43 -160
t-135 -128t-122 -106t-30 -75q0 -76 100 -138l146 -88q61 -37 102 -69t80 -96t39 -140q0 -139 -95 -214q-94 -75 -272 -75z" />
    <glyph glyph-name="agrave" unicode="&#xe0;" horiz-adv-x="1118" 
d="M649 1176l-430 247l74 105l407 -279zM420 80q143 0 282 108l76 58v209q-94 23 -236 23t-233 -50q-90 -49 -90 -172q0 -176 201 -176zM418 -27q-170 0 -247 82t-77 207q0 166 126 244t331 78q127 0 227 -27v107q0 291 -282 290q-158 0 -301 -106l-52 90q147 125 363 125
q216 1 305 -105q90 -106 90 -264v-528q0 -66 64 -66h116v-100q-55 -6 -138 -6t-120 33t-41 106l-45 -37q-149 -123 -319 -123z" />
    <glyph glyph-name="aacute" unicode="&#xe1;" horiz-adv-x="1118" 
d="M395 1176l-51 73l408 279l73 -105zM420 80q143 0 282 108l76 58v209q-94 23 -236 23t-233 -50q-90 -49 -90 -172q0 -176 201 -176zM418 -27q-170 0 -247 82t-77 207q0 166 126 244t331 78q127 0 227 -27v107q0 291 -282 290q-158 0 -301 -106l-52 90q147 125 363 125
q216 1 305 -105q90 -106 90 -264v-528q0 -66 64 -66h116v-100q-55 -6 -138 -6t-120 33t-41 106l-45 -37q-149 -123 -319 -123z" />
    <glyph glyph-name="acircumflex" unicode="&#xe2;" horiz-adv-x="1118" 
d="M233 1174l-59 63l301 283h90l301 -283l-59 -63l-287 221zM420 80q143 0 282 108l76 58v209q-94 23 -236 23t-233 -50q-90 -49 -90 -172q0 -176 201 -176zM418 -27q-170 0 -247 82t-77 207q0 166 126 244t331 78q127 0 227 -27v107q0 291 -282 290q-158 0 -301 -106
l-52 90q147 125 363 125q216 1 305 -105q90 -106 90 -264v-528q0 -66 64 -66h116v-100q-55 -6 -138 -6t-120 33t-41 106l-45 -37q-149 -123 -319 -123z" />
    <glyph glyph-name="atilde" unicode="&#xe3;" horiz-adv-x="1118" 
d="M673 1274q-71 0 -164 46t-130 46q-82 0 -123 -100l-82 43q20 65 72 117q100 100 285 7q93 -46 131 -47q82 0 122 101l82 -43q-20 -66 -71 -118t-122 -52zM420 80q143 0 282 108l76 58v209q-94 23 -236 23t-233 -50q-90 -49 -90 -172q0 -176 201 -176zM418 -27
q-170 0 -247 82t-77 207q0 166 126 244t331 78q127 0 227 -27v107q0 291 -282 290q-158 0 -301 -106l-52 90q147 125 363 125q216 1 305 -105q90 -106 90 -264v-528q0 -66 64 -66h116v-100q-55 -6 -138 -6t-120 33t-41 106l-45 -37q-149 -123 -319 -123z" />
    <glyph glyph-name="adieresis" unicode="&#xe4;" horiz-adv-x="1118" 
d="M711 1286q-39 0 -68 29t-29 67t29 68q29 29 68 29t67 -29t29 -68q-1 -40 -29 -68t-67 -28zM330 1286q-39 0 -68 29t-29 67t29 68q29 29 68 29q40 0 68 -29t28 -68q0 -40 -28 -68t-68 -28zM420 80q143 0 282 108l76 58v209q-94 23 -236 23t-233 -50q-90 -49 -90 -172
q0 -176 201 -176zM418 -27q-170 0 -247 82t-77 207q0 166 126 244t331 78q127 0 227 -27v107q0 291 -282 290q-158 0 -301 -106l-52 90q147 125 363 125q216 1 305 -105q90 -106 90 -264v-528q0 -66 64 -66h116v-100q-55 -6 -138 -6t-120 33t-41 106l-45 -37
q-149 -123 -319 -123z" />
    <glyph glyph-name="aring" unicode="&#xe5;" horiz-adv-x="1118" 
d="M520 1241q61 0 105 44q43 43 43 105t-43 106t-105 44t-104 -44q-43 -44 -43 -105t43 -105t104 -45zM520 1151q-110 0 -178 67t-68 171t69 173q69 68 177 68t178 -66q68 -66 68 -171q0 -104 -68 -173t-178 -69zM420 80q143 0 282 108l76 58v209q-94 23 -236 23t-233 -50
q-90 -49 -90 -172q0 -176 201 -176zM418 -27q-170 0 -247 82t-77 207q0 166 126 244t331 78q127 0 227 -27v107q0 291 -282 290q-158 0 -301 -106l-52 90q147 125 363 125q216 1 305 -105q90 -106 90 -264v-528q0 -66 64 -66h116v-100q-55 -6 -138 -6t-120 33t-41 106
l-45 -37q-149 -123 -319 -123z" />
    <glyph glyph-name="ae" unicode="&#xe6;" horiz-adv-x="1835" 
d="M540 477q-140 0 -231 -49q-90 -49 -90 -172q0 -176 201 -176q143 0 282 108l113 86q-33 90 -39 183q-96 20 -236 20zM1261 956q-145 0 -241 -92t-117 -258h692q-12 164 -101 257t-233 93zM430 -27q-182 0 -259 81t-77 208q0 166 126 244t331 78q127 0 227 -27v107
q0 291 -282 290q-158 0 -301 -106l-52 90q147 125 371 125q279 0 350 -223q129 223 402 223q219 0 339 -141t119 -371v-49h-825q2 -212 111 -316t282 -104q215 0 357 141l65 -84q-59 -69 -175 -117t-259 -49q-289 0 -420 205l-90 -74q-158 -131 -340 -131z" />
    <glyph glyph-name="ccedilla" unicode="&#xe7;" horiz-adv-x="991" 
d="M737 -293q0 -129 -268 -176l-33 82q47 10 113 39t65 55q0 31 -94 66l-84 32l39 89l88 -33q88 -33 131 -67t43 -87zM588 -27q-244 0 -367 150q-123 149 -123 395t140 396t372 149q139 0 242 -53v-260h-98q-12 55 -13 133v53q-61 18 -129 18q-188 0 -287 -125t-99 -325
t98 -310q98 -112 276 -112q129 0 248 53l29 -100q-107 -62 -289 -62z" />
    <glyph glyph-name="egrave" unicode="&#xe8;" horiz-adv-x="1159" 
d="M719 1176l-430 247l73 105l408 -279zM586 956q-144 0 -240 -92t-117 -258h691q-12 164 -102 257t-232 93zM604 -27q-238 -1 -372 143t-134 394t132 402t356 151q224 0 343 -141q120 -141 120 -371v-49h-824q2 -212 110 -316t281 -104q215 0 357 141l65 -84
q-59 -68 -175 -117t-259 -49z" />
    <glyph glyph-name="eacute" unicode="&#xe9;" horiz-adv-x="1159" 
d="M465 1176l-51 73l407 279l74 -105zM586 956q-144 0 -240 -92t-117 -258h691q-12 164 -102 257t-232 93zM604 -27q-238 -1 -372 143t-134 394t132 402t356 151q224 0 343 -141q120 -141 120 -371v-49h-824q2 -212 110 -316t281 -104q215 0 357 141l65 -84
q-59 -68 -175 -117t-259 -49z" />
    <glyph glyph-name="ecircumflex" unicode="&#xea;" horiz-adv-x="1159" 
d="M303 1174l-59 63l301 283h90l301 -283l-59 -63l-287 221zM586 956q-144 0 -240 -92t-117 -258h691q-12 164 -102 257t-232 93zM604 -27q-238 -1 -372 143t-134 394t132 402t356 151q224 0 343 -141q120 -141 120 -371v-49h-824q2 -212 110 -316t281 -104q215 0 357 141
l65 -84q-59 -68 -175 -117t-259 -49z" />
    <glyph glyph-name="edieresis" unicode="&#xeb;" horiz-adv-x="1159" 
d="M780 1286q-40 0 -68 29t-28 67t29 68q29 29 67 29t68 -29q29 -29 29 -68q0 -40 -29 -68t-68 -28zM399 1286q-39 0 -67 29t-29 67q0 38 29 68q30 29 68 29t67 -29t29 -68q0 -40 -29 -68t-68 -28zM586 956q-144 0 -240 -92t-117 -258h691q-12 164 -102 257t-232 93z
M604 -27q-238 -1 -372 143t-134 394t132 402t356 151q224 0 343 -141q120 -141 120 -371v-49h-824q2 -212 110 -316t281 -104q215 0 357 141l65 -84q-59 -68 -175 -117t-259 -49z" />
    <glyph glyph-name="igrave" unicode="&#xec;" horiz-adv-x="534" 
d="M373 1176l-430 247l73 105l408 -279zM347 -6q-85 0 -124 38t-39 122v882h123v-870q0 -66 64 -66h116v-100q-55 -6 -140 -6z" />
    <glyph glyph-name="iacute" unicode="&#xed;" horiz-adv-x="534" 
d="M119 1176l-51 73l407 279l74 -105zM347 -6q-85 0 -124 38t-39 122v882h123v-870q0 -66 64 -66h116v-100q-55 -6 -140 -6z" />
    <glyph glyph-name="icircumflex" unicode="&#xee;" horiz-adv-x="534" 
d="M-43 1174l-59 63l301 283h90l301 -283l-60 -63l-286 221zM347 -6q-85 0 -124 38t-39 122v882h123v-870q0 -66 64 -66h116v-100q-55 -6 -140 -6z" />
    <glyph glyph-name="idieresis" unicode="&#xef;" horiz-adv-x="534" 
d="M434 1286q-40 0 -68 29t-28 67t28 68q28 29 68 29t69 -29q27 -29 27 -68q0 -40 -28 -68t-68 -28zM53 1286q-41 0 -69 29t-27 67q0 38 28 68q29 29 69 29t68 -29t28 -68q0 -40 -28 -68t-69 -28zM347 -6q-85 0 -124 38t-39 122v882h123v-870q0 -66 64 -66h116v-100
q-55 -6 -140 -6z" />
    <glyph glyph-name="ntilde" unicode="&#xf1;" horiz-adv-x="1218" 
d="M744 1274q-72 0 -164 46t-129 46q-82 0 -123 -100l-82 43q20 65 71 117t122 52t164 -45q93 -46 130 -47q82 0 123 101l82 -43q-20 -66 -72 -118t-122 -52zM184 0v1036h119v-155l51 39q195 143 344 143q148 0 226 -96t77 -256v-545q0 -66 64 -66h117v-100q-55 -6 -140 -6
t-124 38t-39 122v534q0 266 -197 266q-115 0 -289 -127l-86 -63v-764h-123z" />
    <glyph glyph-name="ograve" unicode="&#xf2;" horiz-adv-x="1220" 
d="M739 1176l-430 247l74 105l408 -279zM610 80q172 0 279 124q106 124 106 314t-106 314q-107 124 -279 124t-278 -124t-106 -314t106 -314t278 -124zM612 1063q230 0 370 -154t140 -388t-142 -391t-372 -157q-231 0 -370 154q-140 154 -140 388t142 391t372 157z" />
    <glyph glyph-name="oacute" unicode="&#xf3;" horiz-adv-x="1220" 
d="M485 1176l-51 73l408 279l73 -105zM610 80q172 0 279 124q106 124 106 314t-106 314q-107 124 -279 124t-278 -124t-106 -314t106 -314t278 -124zM612 1063q230 0 370 -154t140 -388t-142 -391t-372 -157q-231 0 -370 154q-140 154 -140 388t142 391t372 157z" />
    <glyph glyph-name="ocircumflex" unicode="&#xf4;" horiz-adv-x="1220" 
d="M324 1174l-60 63l301 283h90l301 -283l-59 -63l-287 221zM610 80q172 0 279 124q106 124 106 314t-106 314q-107 124 -279 124t-278 -124t-106 -314t106 -314t278 -124zM612 1063q230 0 370 -154t140 -388t-142 -391t-372 -157q-231 0 -370 154q-140 154 -140 388
t142 391t372 157z" />
    <glyph glyph-name="otilde" unicode="&#xf5;" horiz-adv-x="1220" 
d="M763 1274q-71 0 -164 46t-130 46q-82 0 -123 -100l-82 43q20 65 72 117t122 52q71 0 164 -45q93 -46 130 -47q82 0 122 101l82 -43q-20 -66 -71 -118t-122 -52zM610 80q172 0 279 124q106 124 106 314t-106 314q-107 124 -279 124t-278 -124t-106 -314t106 -314t278 -124
zM612 1063q230 0 370 -154t140 -388t-142 -391t-372 -157q-231 0 -370 154q-140 154 -140 388t142 391t372 157z" />
    <glyph glyph-name="odieresis" unicode="&#xf6;" horiz-adv-x="1220" 
d="M801 1286q-39 0 -68 29t-29 67t29 68q29 29 68 29t67 -29t29 -68q-1 -40 -29 -68t-67 -28zM420 1286q-39 0 -68 29q-28 29 -28 67t28 68q29 29 68 29q40 0 68 -29t28 -68q0 -40 -28 -68t-68 -28zM610 80q172 0 279 124q106 124 106 314t-106 314q-107 124 -279 124
t-278 -124t-106 -314t106 -314t278 -124zM612 1063q230 0 370 -154t140 -388t-142 -391t-372 -157q-231 0 -370 154q-140 154 -140 388t142 391t372 157z" />
    <glyph glyph-name="divide" unicode="&#xf7;" horiz-adv-x="1134" 
d="M567 850q-45 0 -75 31t-31 75q0 44 31 76q32 31 76 31t75 -31t31 -76q0 -46 -31 -76t-76 -30zM567 -27q-45 0 -75 31t-31 76q0 45 31 76q32 30 76 30t75 -30t31 -76q0 -45 -31 -76t-76 -31zM131 467v119h873v-119h-873z" />
    <glyph glyph-name="oslash" unicode="&#xf8;" horiz-adv-x="1220" 
d="M610 80q172 0 279 124q106 124 106 316t-100 309l-489 -692q89 -57 204 -57zM225 518q0 -190 103 -311l491 688q-94 61 -209 61q-172 0 -278 -124t-107 -314zM98 504q0 244 142 402q142 157 370 157q156 0 275 -74l139 195l82 -58l-141 -198q157 -154 157 -398t-141 -400
q-141 -157 -371 -157q-150 0 -272 70l-133 -188l-86 55l139 196q-160 154 -160 398z" />
    <glyph glyph-name="ugrave" unicode="&#xf9;" horiz-adv-x="1191" 
d="M698 1176l-430 247l74 105l408 -279zM1007 -6q-83 0 -120 33t-41 108l-25 -18q-195 -143 -344 -143t-226 96t-77 256v710h123v-688q0 -266 197 -266q115 0 288 127l60 43v784h123v-870q0 -66 63 -66h117v-100q-55 -6 -138 -6z" />
    <glyph glyph-name="uacute" unicode="&#xfa;" horiz-adv-x="1191" 
d="M444 1176l-51 73l408 279l73 -105zM1007 -6q-83 0 -120 33t-41 108l-25 -18q-195 -143 -344 -143t-226 96t-77 256v710h123v-688q0 -266 197 -266q115 0 288 127l60 43v784h123v-870q0 -66 63 -66h117v-100q-55 -6 -138 -6z" />
    <glyph glyph-name="ucircumflex" unicode="&#xfb;" horiz-adv-x="1191" 
d="M283 1174l-60 63l301 283h90l301 -283l-59 -63l-287 221zM1007 -6q-83 0 -120 33t-41 108l-25 -18q-195 -143 -344 -143t-226 96t-77 256v710h123v-688q0 -266 197 -266q115 0 288 127l60 43v784h123v-870q0 -66 63 -66h117v-100q-55 -6 -138 -6z" />
    <glyph glyph-name="udieresis" unicode="&#xfc;" horiz-adv-x="1191" 
d="M760 1286q-39 0 -68 29q-28 29 -28 67t28 68q29 29 68 29q40 0 68 -29t28 -68q0 -40 -28 -68t-68 -28zM379 1286q-39 0 -68 29t-29 67t29 68q29 29 68 29t67 -29t29 -68q-1 -40 -29 -68t-67 -28zM1007 -6q-83 0 -120 33t-41 108l-25 -18q-195 -143 -344 -143t-226 96
t-77 256v710h123v-688q0 -266 197 -266q115 0 288 127l60 43v784h123v-870q0 -66 63 -66h117v-100q-55 -6 -138 -6z" />
    <glyph glyph-name="yacute" unicode="&#xfd;" horiz-adv-x="976" 
d="M365 1176l-52 73l408 279l74 -105zM142 -479q-120 0 -197 37l16 98q63 -27 151 -27t146 40q57 40 100 157l62 166l-391 1044h135l325 -905l334 905h125l-469 -1243q-59 -156 -138 -214t-199 -58z" />
    <glyph glyph-name="ydieresis" unicode="&#xff;" horiz-adv-x="976" 
d="M680 1286q-41 0 -69 29q-27 29 -27 67t27 68q28 29 69 29t69 -29q27 -29 27 -68q0 -40 -28 -68t-68 -28zM299 1286q-41 0 -69 29t-28 67t28 68q28 29 69 29t69 -29t28 -68q0 -40 -28 -68t-69 -28zM142 -479q-120 0 -197 37l16 98q63 -27 151 -27t146 40q57 40 100 157
l62 166l-391 1044h135l325 -905l334 905h125l-469 -1243q-59 -156 -138 -214t-199 -58z" />
    <glyph glyph-name="dotlessi" unicode="&#x131;" horiz-adv-x="534" 
d="M347 -6q-85 0 -124 38t-39 122v882h123v-870q0 -66 64 -66h116v-100q-55 -6 -140 -6z" />
    <glyph glyph-name="OE" unicode="&#x152;" horiz-adv-x="2033" 
d="M258 725q0 -311 164 -463t467 -151h225v1230h-225q-303 -1 -467 -153t-164 -463zM879 0q-348 0 -552 183t-204 539t206 544q206 186 550 186h1063v-111h-699v-536h537v-111h-537v-583h705v-111h-1069z" />
    <glyph glyph-name="oe" unicode="&#x153;" horiz-adv-x="2056" 
d="M1483 956q-143 0 -239 -92t-118 -258h691q-11 164 -101 257t-233 93zM610 80q172 0 279 124q106 124 106 314t-106 314q-107 124 -279 124t-278 -124t-106 -314t106 -314t278 -124zM610 -27q-233 0 -372 154q-140 154 -140 388t142 391t370 157q160 0 275 -75t172 -208
q55 135 165 209t265 74q219 0 339 -141t120 -371v-49h-824q2 -212 110 -316t281 -104q215 0 357 141l65 -84q-59 -69 -175 -117t-259 -49q-334 0 -446 283q-59 -131 -174 -207t-271 -76z" />
    <glyph glyph-name="Scaron" unicode="&#x160;" horiz-adv-x="1075" 
d="M502 1540l-301 283l59 63l287 -221l287 221l59 -63l-301 -283h-90zM508 -27q-139 1 -261 49t-186 125l66 91q154 -150 375 -150q162 0 258 78t96 212t-108 209q-59 40 -109 62t-131 51q-186 72 -289 161q-102 89 -102 249t115 264q116 104 315 105q121 0 229 -39t168 -94
l-57 -95q-153 115 -319 115t-242 -73t-76 -187t95 -183q75 -54 200 -103q125 -48 187 -79q180 -90 227 -197q30 -67 30 -155q0 -188 -133 -302t-348 -114z" />
    <glyph glyph-name="scaron" unicode="&#x161;" horiz-adv-x="935" 
d="M436 1174l-301 282l60 64l286 -222l287 222l59 -64l-301 -282h-90zM478 -27q-150 0 -250 38t-152 93l51 91q133 -115 326 -115q119 0 191 47t71 134t-57 130t-164 79t-155 55q-46 19 -101 55q-107 69 -107 199t97 207q98 77 228 77t225 -41t138 -92l-57 -86
q-123 111 -285 110q-109 0 -165 -49t-56 -117t46 -114q28 -30 83 -50t171 -58t171 -81q111 -78 112 -216t-105 -217t-256 -79z" />
    <glyph glyph-name="Ydieresis" unicode="&#x178;" horiz-adv-x="1155" 
d="M768 1653q-39 -1 -68 27t-28 69q0 41 28 69q29 28 68 28t68 -28q28 -28 28 -69t-28 -69q-29 -27 -68 -27zM387 1653q-39 -1 -68 27t-28 69q0 41 28 69q29 28 68 28t68 -28t29 -69t-29 -69q-29 -27 -68 -27zM514 0v625l-510 827h152l424 -715l421 715h150l-508 -825v-627
h-129z" />
    <glyph glyph-name="Zcaron" unicode="&#x17d;" horiz-adv-x="1153" 
d="M543 1540l-301 283l59 63l287 -221l286 221l60 -63l-301 -283h-90zM82 0v106l821 1235h-797v111h949v-106l-826 -1235h842v-111h-989z" />
    <glyph glyph-name="zcaron" unicode="&#x17e;" horiz-adv-x="997" 
d="M463 1174l-301 282l59 64l287 -222l287 222l59 -64l-301 -282h-90zM94 0v96l641 836h-629v104h777v-96l-641 -836h661v-104h-809z" />
    <glyph glyph-name="florin" unicode="&#x192;" horiz-adv-x="815" 
d="M94 782v105h176v231q0 180 83 270t231 91q106 0 172 -37l-19 -99q-49 25 -153 25t-147 -69q-44 -69 -44 -214v-198h307v-105h-307v-901q0 -180 -83 -270t-230 -90q-106 0 -172 37l18 98q49 -25 153 -25q103 0 147 69t44 214v868h-176z" />
    <glyph glyph-name="circumflex" unicode="&#x2c6;" horiz-adv-x="1101" 
d="M264 1174l-59 63l301 283h90l301 -283l-59 -63l-287 221z" />
    <glyph glyph-name="caron" unicode="&#x2c7;" horiz-adv-x="1101" 
d="M506 1174l-301 282l59 64l287 -222l287 222l59 -64l-301 -282h-90z" />
    <glyph glyph-name="breve" unicode="&#x2d8;" horiz-adv-x="1114" 
d="M557 1198q-158 0 -249 96t-103 244l100 18q18 -108 83 -178t169 -70t169 70t83 178l100 -18q-12 -148 -103 -244t-249 -96z" />
    <glyph glyph-name="dotaccent" unicode="&#x2d9;" horiz-adv-x="602" 
d="M301 1286q-39 0 -68 29t-29 67t29 68q29 29 68 29t68 -29t29 -68q0 -40 -30 -68q-28 -28 -67 -28z" />
    <glyph glyph-name="ring" unicode="&#x2da;" horiz-adv-x="901" 
d="M451 1241q61 0 104 44q43 43 43 105t-43 106t-104 44t-105 -44t-43 -105q0 -61 43 -106q44 -44 105 -44zM451 1151q-109 0 -178 67t-69 171t69 173q69 68 178 68t177 -66t68 -171q0 -104 -68 -173t-177 -69z" />
    <glyph glyph-name="ogonek" unicode="&#x2db;" horiz-adv-x="782" 
d="M326 -266q0 -63 194 -125l-35 -82q-281 68 -280 199q0 70 92 151l215 191l66 -68l-197 -178q-55 -49 -55 -88z" />
    <glyph glyph-name="tilde" unicode="&#x2dc;" horiz-adv-x="1101" 
d="M703 1274q-71 0 -163 46t-130 46q-82 0 -123 -100l-82 43q20 65 71 117t122 52t164 -45q93 -46 130 -47q82 0 123 101l82 -43q-19 -66 -71 -118t-123 -52z" />
    <glyph glyph-name="hungarumlaut" unicode="&#x2dd;" horiz-adv-x="1341" 
d="M707 1176l-52 73l408 279l74 -105zM256 1176l-51 73l407 279l74 -105z" />
    <glyph glyph-name="endash" unicode="&#x2013;" horiz-adv-x="1064" 
d="M51 467v119h963v-119h-963z" />
    <glyph glyph-name="emdash" unicode="&#x2014;" horiz-adv-x="2088" 
d="M51 467v119h1987v-119h-1987z" />
    <glyph glyph-name="quoteleft" unicode="&#x2018;" horiz-adv-x="503" 
d="M240 971q-106 0 -106 123t62 229t117 158l78 -45q-41 -49 -82 -120t-41 -105t27 -50q51 -29 51 -79t-30 -80t-76 -31z" />
    <glyph glyph-name="quoteright" unicode="&#x2019;" horiz-adv-x="503" 
d="M236 1238q0 34 -27 50q-51 29 -51 79t30 81q31 31 76 31q106 0 106 -123q0 -124 -62 -230q-63 -106 -118 -157l-77 45q41 49 82 120q41 70 41 104z" />
    <glyph glyph-name="quotesinglbase" unicode="&#x201a;" horiz-adv-x="540" 
d="M242 -54q0 34 -27 50q-51 29 -51 79t31 81t75 30q106 0 106 -123t-62 -229t-117 -158l-78 45q41 49 82 120t41 105z" />
    <glyph glyph-name="quotedblleft" unicode="&#x201c;" horiz-adv-x="841" 
d="M578 971q-106 0 -106 123t62 229t117 158l78 -45q-41 -49 -82 -120t-41 -105t27 -50q51 -29 51 -79t-30 -80t-76 -31zM240 971q-106 0 -106 123t62 229t117 158l78 -45q-41 -49 -82 -120t-41 -105t27 -50q51 -29 51 -79t-30 -80t-76 -31z" />
    <glyph glyph-name="quotedblright" unicode="&#x201d;" horiz-adv-x="841" 
d="M573 1238q0 34 -26 50q-51 29 -51 79t30 81q31 31 76 31q106 0 106 -123q0 -124 -62 -230q-63 -106 -118 -157l-77 45q41 49 81 120q41 70 41 104zM236 1238q0 34 -27 50q-51 29 -51 79t30 81q31 31 76 31q106 0 106 -123q0 -124 -62 -230q-63 -106 -118 -157l-77 45
q41 49 82 120q41 70 41 104z" />
    <glyph glyph-name="quotedblbase" unicode="&#x201e;" horiz-adv-x="878" 
d="M580 -54q0 34 -27 50q-51 29 -51 79t30 81q31 31 76 30q106 0 106 -123t-62 -229t-117 -158l-78 45q41 49 82 120t41 105zM242 -54q0 34 -27 50q-51 29 -51 79t31 81t75 30q106 0 106 -123t-62 -229t-117 -158l-78 45q41 49 82 120t41 105z" />
    <glyph glyph-name="dagger" unicode="&#x2020;" horiz-adv-x="755" 
d="M86 1044v95h584v-95h-584zM322 438v498q0 55 56 55t56 -55v-498h-112zM434 1247q0 -55 -56 -55t-56 55v205h112v-205z" />
    <glyph glyph-name="daggerdbl" unicode="&#x2021;" horiz-adv-x="755" 
d="M86 1044v95h584v-95h-584zM86 606v94h584v-94h-584zM322 0v498q0 55 56 55t56 -55v-498h-112zM434 1247q0 -55 -56 -55t-56 55v205h112v-205zM434 809q0 -55 -56 -55t-56 55v127q0 55 56 55t56 -55v-127z" />
    <glyph glyph-name="bullet" unicode="&#x2022;" horiz-adv-x="655" 
d="M328 457q-70 0 -117 47t-47 117q0 69 47 117t117 48t116 -48t48 -118q0 -70 -47 -116q-47 -47 -117 -47z" />
    <glyph glyph-name="ellipsis" unicode="&#x2026;" horiz-adv-x="1286" 
d="M1016 -27q-45 0 -76 31t-31 76t31 76q31 30 76 30t76 -30q30 -30 30 -76q0 -45 -30 -76t-76 -31zM643 -27q-45 0 -76 31t-30 76q0 45 30 76q31 30 76 30t76 -30t31 -76q0 -45 -31 -76t-76 -31zM270 -27q-46 0 -76 31t-30 76t31 76q31 30 75 30t76 -30q31 -30 31 -76
q0 -45 -31 -76t-76 -31z" />
    <glyph glyph-name="perthousand" unicode="&#x2030;" horiz-adv-x="2496" 
d="M393 -68l-100 68l1034 1520l100 -68zM2087 84q82 0 132 78t50 200t-50 201q-50 78 -132 78t-132 -78t-50 -201q0 -122 50 -200t132 -78zM2394 363q0 -169 -84 -279t-225 -111q-141 0 -223 110q-82 111 -82 279t84 279t225 111t223 -110t82 -279zM1315 84q82 0 132 78
t50 200t-50 201q-50 78 -132 78t-132 -78t-50 -201q0 -122 50 -200t132 -78zM1622 363q0 -169 -84 -279t-225 -111q-141 0 -223 110q-82 111 -82 279t84 279t225 111t223 -110t82 -279zM410 811q82 0 132 78t50 201q0 122 -50 200t-132 78t-132 -78t-50 -200t50 -201
q50 -78 132 -78zM408 700q-141 0 -224 110q-82 110 -82 279t84 279t226 111q142 0 223 -110q82 -111 82 -279t-84 -279t-225 -111z" />
    <glyph glyph-name="guilsinglleft" unicode="&#x2039;" horiz-adv-x="712" 
d="M504 96l-422 422l422 422l86 -82l-338 -340l338 -336z" />
    <glyph glyph-name="guilsinglright" unicode="&#x203a;" horiz-adv-x="712" 
d="M209 96l-86 86l338 336l-338 340l86 82l422 -422z" />
    <glyph glyph-name="fraction" unicode="&#x2044;" horiz-adv-x="692" 
d="M-121 -68l-100 68l1034 1520l100 -68z" />
    <glyph glyph-name="uni2070" unicode="&#x2070;" horiz-adv-x="874" 
d="M437 592q101 0 158 99q56 99 56 289t-56 290q-55 98 -157 98t-158 -98t-56 -288t56 -290t157 -100zM437 492q-155 0 -245 128t-90 359t92 360t244 129q154 0 244 -127t90 -359t-90 -361t-245 -129z" />
    <glyph glyph-name="uni2074" unicode="&#x2074;" horiz-adv-x="804" 
d="M57 737v82l385 633h125l-377 -614h302v297h114v-297h139v-101h-139v-229h-114v229h-435z" />
    <glyph glyph-name="uni2075" unicode="&#x2075;" horiz-adv-x="792" 
d="M406 1104q140 0 212 -87t72 -219t-84 -219t-245 -87q-162 0 -255 92l48 80q86 -74 198 -74t164 55q53 55 53 153t-50 154q-50 58 -135 58t-159 -47l-71 45l16 444h475v-100h-371l-12 -279q61 31 144 31z" />
    <glyph glyph-name="uni2076" unicode="&#x2076;" horiz-adv-x="843" 
d="M618 798q0 102 -55 156t-151 54t-191 -62v-41q0 -319 205 -319q84 0 138 55t54 157zM412 492q-310 0 -310 450q0 230 111 378t305 148q125 0 191 -41l-27 -90q-66 33 -154 33q-134 0 -208 -87t-93 -241q106 62 231 62t201 -84t76 -221t-86 -222q-87 -85 -237 -85z" />
    <glyph glyph-name="uni2077" unicode="&#x2077;" horiz-adv-x="729" 
d="M180 1354v-156h-104v254h577v-80l-274 -864h-119l272 846h-352z" />
    <glyph glyph-name="uni2078" unicode="&#x2078;" horiz-adv-x="847" 
d="M598 1240q0 64 -46 98t-127 34t-128 -34t-47 -98t43 -105t131 -86q90 47 132 87t42 104zM625 735q1 74 -53 123t-148 94q-94 -45 -148 -94t-53 -122q-1 -74 55 -112t146 -38t146 38t55 111zM424 492q-143 0 -231 66q-89 66 -89 167t58 161t160 113q-188 96 -189 244
q0 101 80 163t213 62t211 -62t78 -154t-50 -146q-50 -55 -141 -105q104 -57 162 -115t57 -159q0 -101 -88 -168t-231 -67z" />
    <glyph glyph-name="uni2079" unicode="&#x2079;" horiz-adv-x="843" 
d="M430 963q96 0 193 59v35q0 317 -205 317q-84 0 -137 -53t-53 -153t52 -153q54 -52 150 -52zM369 492q-166 0 -256 94l49 82q88 -78 205 -78q233 0 251 338q-100 -62 -226 -62t-205 82t-79 218t87 219q86 83 231 83q315 0 315 -456q1 -520 -372 -520z" />
    <glyph glyph-name="Euro" unicode="&#x20ac;" horiz-adv-x="1320" 
d="M102 862v111h174q35 240 166 373t364 133t400 -111l-41 -111q-176 106 -350 107q-352 0 -409 -391h659v-111h-670q-4 -86 -4 -132t4 -116h670v-110h-662q47 -416 412 -416q205 0 389 100l35 -108q-182 -106 -424 -107q-481 0 -541 531h-172v110h164q-4 74 -4 140t2 108
h-162z" />
    <glyph glyph-name="trademark" unicode="&#x2122;" horiz-adv-x="1656" 
d="M299 705v653h-238v94h578v-94h-238v-653h-102zM760 705v747h119l239 -418l240 418h115v-747h-105v579l-217 -379h-70l-219 379v-579h-102z" />
    <glyph glyph-name="minus" unicode="&#x2212;" horiz-adv-x="1261" 
d="M113 465v123h1036v-123h-1036z" />
    <glyph glyph-name="notequal" unicode="&#x2260;" horiz-adv-x="1363" 
d="M164 711v116h676l254 357l82 -58l-213 -299h237v-116h-319l-263 -369h582v-117h-663l-263 -370l-86 55l224 315h-248v117h332l262 369h-594z" />
    <glyph glyph-name="lessequal" unicode="&#x2264;" horiz-adv-x="1273" 
d="M78 0v111h1093v-111h-1093zM1124 201l-1046 497v95l1046 497l52 -98l-955 -447l955 -440z" />
    <glyph glyph-name="greaterequal" unicode="&#x2265;" horiz-adv-x="1273" 
d="M102 0v111h1094v-111h-1094zM150 201l-52 98l955 446l-955 441l52 104l1046 -497v-95z" />
    <glyph glyph-name="apple" horiz-adv-x="1372" 
d="M82 0v1208h1208v-1208h-1208zM631 162q229 0 365 123t136 337t-112 330q-113 116 -283 115q-229 0 -365 -123t-136 -337q0 -213 112 -329t283 -116zM627 236q-129 0 -212 101t-83 260q0 315 239 392q-150 -98 -149 -358q0 -141 58 -235t153 -93q45 -1 75 19t31 47l-2 2
q-25 -8 -67 -9q-68 0 -111 80t-43 201q0 350 225 350q129 0 212 -101t83 -284q0 -133 -63 -233t-178 -137q152 100 151 360q0 140 -58 234t-153 94q-45 0 -75 -20t-31 -46l2 -2q25 8 67 8q68 0 111 -80t43 -200q0 -350 -225 -350z" />
    <glyph glyph-name="g.alt" horiz-adv-x="1171" 
d="M649 956q-201 0 -313 -125t-111 -325t77 -312q76 -114 224 -114t281 108l57 48v673q-98 47 -215 47zM987 -27q0 -215 -135 -333q-136 -118 -356 -119q-220 0 -359 78l29 98q150 -68 309 -68q389 0 389 379v105l-37 -31q-133 -109 -323 -109q-190 1 -298 143t-108 382
t140 403q140 162 393 162q203 0 356 -84v-1006z" />
    <glyph glyph-name="p.alt" horiz-adv-x="1171" 
d="M644 957q-148 0 -279 -109l-58 -47v-654q100 -68 242 -67q180 0 289 128q108 128 108 324t-77 311q-77 114 -225 114zM184 -453v1489h119v-116l41 34q134 109 324 109t298 -142t108 -380t-138 -403q-137 -165 -375 -165q-150 0 -254 60v-486h-123z" />
    <glyph glyph-name="zero.tnum" horiz-adv-x="1179" 
d="M590 84q166 0 253 167t87 475t-87 475t-253 167t-253 -167t-87 -475t87 -475t253 -167zM589 -27q-220 0 -345 197t-125 555t126 556t346 198t345 -196t125 -554t-126 -557t-346 -199z" />
    <glyph glyph-name="one.tnum" horiz-adv-x="1179" 
d="M242 0v109h319v1234h-319v109h444v-1343h279v-109h-723z" />
    <glyph glyph-name="two.tnum" horiz-adv-x="1179" 
d="M170 0v100l391 475q152 182 212 295q61 113 61 233q0 119 -73 193t-204 74q-180 0 -315 -117l-62 84q142 141 352 141t322 -98q112 -100 111 -260q0 -160 -77 -299t-229 -315l-337 -395h710v-111h-862z" />
    <glyph glyph-name="three.tnum" horiz-adv-x="1179" 
d="M516 -27q-256 0 -387 136l59 92q50 -49 136 -84t178 -35q147 0 241 81t95 210q0 338 -428 338h-56v104h72q178 0 270 81t92 209t-81 197q-81 68 -225 68t-259 -78l-49 86q135 100 346 101q168 1 282 -99t113 -258q0 -262 -245 -352q135 -35 215 -139q80 -105 80 -269
t-128 -276t-321 -113z" />
    <glyph glyph-name="four.tnum" horiz-adv-x="1179" 
d="M82 379v96l616 977h140l-611 -965h521v492h124v-492h226v-108h-226v-379h-124v379h-666z" />
    <glyph glyph-name="five.tnum" horiz-adv-x="1179" 
d="M538 -27q-236 0 -368 136l59 92q51 -49 137 -84t177 -35q166 0 250 92t84 258t-83 262q-84 96 -224 96t-253 -73l-81 47l30 688h674v-111h-559l-25 -495q94 51 213 51q211 0 323 -128t112 -333t-115 -334t-351 -129z" />
    <glyph glyph-name="six.tnum" horiz-adv-x="1179" 
d="M576 791q-160 0 -322 -119v-72q0 -266 88 -392t241 -126t243 95t92 259q0 164 -91 260t-251 95zM584 -27q-459 0 -459 648q0 389 164 623t446 235q174 0 264 -56l-28 -96q-100 45 -236 45q-188 0 -315 -150t-160 -429q174 109 342 108q207 0 325 -129q117 -129 117 -334
t-124 -335t-336 -130z" />
    <glyph glyph-name="seven.tnum" horiz-adv-x="1179" 
d="M250 1343v-253h-115v362h873v-96l-451 -1356h-129l451 1343h-629z" />
    <glyph glyph-name="eight.tnum" horiz-adv-x="1179" 
d="M590 1370q-125 0 -206 -56t-81 -168q-1 -112 65 -178t222 -151q84 49 121 73t84 66t64 86q17 45 18 105q0 111 -81 167t-206 56zM590 82q152 0 244 66t92 192q0 125 -88 205t-250 160q-147 -76 -215 -131q-67 -56 -93 -111t-26 -123q0 -126 92 -192t244 -66zM1053 340
q0 -164 -130 -266t-335 -101q-205 -1 -333 99t-128 256t93 250t259 184q-143 76 -223 164t-80 229t118 233t298 91q180 0 296 -89q116 -90 116 -234t-79 -227t-229 -165q261 -137 327 -283q30 -66 30 -141z" />
    <glyph glyph-name="nine.tnum" horiz-adv-x="1179" 
d="M603 674q161 0 323 119v59q0 266 -88 392t-242 126t-244 -92t-90 -256t90 -256t251 -92zM500 -27q-231 0 -359 138l58 88q121 -117 301 -117q385 0 420 590q-174 -109 -342 -109q-209 0 -326 126t-117 331t124 332t343 127t336 -162t117 -540t-135 -591t-420 -213z" />
    <glyph glyph-name="percent.alt" horiz-adv-x="1206" 
d="M307 457l-82 57l674 989l82 -57zM1014 752q0 74 -28 120t-78 48q-50 0 -79 -48t-29 -120q0 -74 30 -121q28 -47 78 -47t78 47t28 121zM907 492q-102 0 -158 72q-57 72 -57 187q0 113 58 187t159 74q103 0 159 -73t56 -187t-57 -187q-58 -73 -160 -73zM300 1042
q50 0 79 46t29 120t-29 121t-79 47t-79 -47t-29 -121t30 -120q28 -46 78 -46zM516 1208q0 -114 -58 -188t-160 -74q-101 0 -159 74q-57 74 -57 186t58 188q58 74 160 74t159 -73q57 -74 57 -187z" />
    <glyph glyph-name="shape" horiz-adv-x="2285" 
d="M1102 -446q-465 0 -732 275t-268 777q0 286 85 527q48 135 123 236t199 167q123 66 281 66t348 -62t373 -178q413 -261 579 -589q93 -183 93 -365q0 -348 -308 -601t-773 -253z" />
    <glyph glyph-name="one.tnum02" horiz-adv-x="589" 
d="M266 0v1343h-196v109h321v-1452h-125z" />
    <glyph glyph-name="mnd" 
d="M-1309 -530l-32 14l157 444l35 -14zM-440 -479q-53 0 -54 49v133q0 66 -47 66q-33 0 -92 -50v-194h-39v272h37v-41q55 47 100 47q80 0 80 -90v-139q0 -20 19 -20h37v-29q-16 -4 -41 -4zM-270 -449q39 0 86 41v164q-25 14 -66 14q-42 0 -68 -32q-26 -33 -26 -86
q0 -101 74 -101zM-745 -479q-53 0 -54 49v133q0 66 -43 66q-29 0 -84 -50v-194h-39v178q0 66 -43 66q-27 0 -82 -50v-194h-38v272h36v-41q54 47 100 47t62 -49q49 49 92 49q78 0 78 -90v-139q0 -20 19 -20h36v-29q-15 -4 -40 -4zM-278 -481q-49 0 -78 36q-29 35 -29 99
t38 106t86 43q48 0 77 -12v129h39v-346q0 -20 18 -20h37v-29q-16 -4 -39 -4q-47 0 -51 39q-49 -41 -98 -41z" />
    <glyph glyph-name="line00" 
d="M-207 -303l-67 74l2324 1976l68 -74z" />
    <glyph glyph-name="line01" 
d="M-205 -266l-55 86l2922 1898l56 -86z" />
    <glyph glyph-name="line03" 
d="M-213 -225l-51 88l3537 1814l51 -88z" />
    <glyph glyph-name="line05" 
d="M-221 -205l-47 90l4194 1772l47 -90z" />
    <glyph glyph-name="line07" 
d="M-229 -205l-43 92l4808 1770l43 -92z" />
    <glyph glyph-name="line09" 
d="M-236 -184l-40 92l5421 1728l41 -92z" />
    <glyph glyph-name="line11" 
d="M-244 -184l-37 94l6036 1726l37 -94z" />
    <glyph glyph-name="line13" 
d="M-252 -164l-33 96l6693 1684l33 -96z" />
    <glyph glyph-name="line15" 
d="M-260 -164l-29 98l7307 1682l29 -98z" />
    <glyph glyph-name="hyphen.alt01" horiz-adv-x="804" 
d="M113 670v123h579v-123h-579z" />
    <glyph glyph-name="hyphen.alt02" horiz-adv-x="804" 
d="M113 506v123h579v-123h-579z" />
    <glyph glyph-name="asterisk.alt" 
d="M-479 883l-8 106l24 127l-96 -86l-96 -45l-47 80l88 61l120 41l-120 41l-88 62l47 80l96 -45l96 -86l-24 127l8 106h94l8 -106l-24 -127l96 86l96 45l47 -80l-88 -62l-121 -41l121 -41l88 -61l-47 -80l-96 45l-96 86l24 -127l-8 -106h-94z" />
    </font>
</defs>
</svg>
